<?xml version="1.0" encoding="UTF-8"?>
<svg id="Camada_2" data-name="Camada 2" xmlns="http://www.w3.org/2000/svg" viewBox="0 0 127.99 176.26">
  <defs>
    <style>
      .cls-1 {
        fill: #03ff88;
      }
    </style>
  </defs>
  <g id="Camada_1-2" data-name="Camada 1">
    <g>
      <path class="cls-1" d="M51.49,59.81l-10.39,12.94c-6.12,3.59-11.88,7.89-16.48,14.1-2.38,3.22-2.78,8.88-3.82,12.96l5.94-1.34-7.65,6.7-1.18,1.03c-.59.52-1.93,2.22-2.32,3.13l4.03,11.32-3,10.84,4.07,6.05c.35.52,2.2,1.5,2.82,1.38.75-.15,1.46-1.02,2.89-2.44l4.13,5.69-.04,11.94c0,1.77,1.49,3.56,3.3,4.05.52-2.82,1.03-4.81,2.48-7.45l2.12,8.61c.35,1.15,4.42.86,4.32-.09.13-2.95.42-5.35,1.01-7.77l3.06,1.94c-.37,2.01-.3,4.67.78,6.65,1.11.21,3.79.13,4.81,0,.45-3.47.54-4.78,1.88-8.47l3.08,7.96,5.74-2.53.87-14.1-5.35,4.46c.41-2.99,2.33-6.08,4.47-8.23l9.3,3.11,13.75-11.15-9.62-4.92.52-9.83c-2.52-4.3-4.3-8.17-5.8-12.88l3.17,1.86,9.6-7.83-6.3,11.3,6.23,12.1,8.73-4.07,5.73-5.76-4.67,12.64-3.76,6.59-.4,5.41c1.59-1.58,2.25-2.92,3.36-4.47l4.01-5.61c2.33-5.34,3.23-10.61,4.56-16.35.54-2.34-.52-5.92-1.52-7.88l-4.16-8.14-.66,2.26c-2.72-2.7-4.01-5.81-5.85-9.6-2.58-5.29-10.07-12.1-15.89-14.29-3.18-1.19-7.52-2.69-10.83-2.53l-16.77.83,7.65-6.71,2.86-1.88,12.23-9.97-3.43-8.79c-.5-1.28-2.67-3.67-2.36-5.14l2.74-13.21,17.64-13.18c1.93-2.83,2.38-7.09,3.61-11.1l4.84,11.09-7.27,12.82c-2.81,4.95-3.12,10.81,1.22,14.98l6.59,6.34-1.96,11.55c-.84,4.92,1.71,10.24,6.73,11.32,2.58.55,6.89-.69,7.6-3.38,1-3.78,1-7.68.94-12.03l13.02-15.11-3.23,15.38,7.63,18.69-11.04,16.24c-2.04,3-1.28,10.27,1.49,12.11,4.03,2.67,6.89-1.25,8.48-3.6l5.16-7.63,1.1,20.17-15.64,20.68,12.32,3.58-17.08,6.4-9.39,3.01,2.65,1.41-6.18,3.56,20.97-.62-27.92,22.37,1.54-9.75-13.03,7.48,1.35-10.71,2.37-10.94-5.21,7.61-2.41,6.02-1.41,3.62c-2.58,4.54-4.23,8.38-6.08,13.53l-8.86-.83,4.06-2.36-2.08-2.91-11.38,3.34c-2.09-2.25-4.8-3.03-7.09-2.97l.33,2.93-5.46,1.42-9.02-7.33-18.96-13.69,4.32-6.39,8.14,3.17-10.58-14.89,2.34-11.75L0,107.36l9.62-39.83,3.52,15.55,13.39-17.14-4.24-16.46,17.95-16.56,2.09-11.36,7.17,9.6-3.66,14.22c-.39,1.53,1.79,4.83,3.03,5.89l8.5,1.31-5.9,7.22Z"/>
      <path d="M124.75,133.29l-12.32-3.58,8.04-10.63-.77-1.42-26.88,13.91c-1.03,1.47-1.7,2.76-3.22,4.27l.4-5.41,3.76-6.59,4.67-12.64-5.73,5.76-8.73,4.07-6.23-12.1,6.3-11.3-9.6,7.83-3.17-1.86c1.5,4.72,3.28,8.58,5.8,12.88l-.52,9.83,9.62,4.92-13.75,11.15-9.3-3.11c-2.14,2.15-4.06,5.24-4.47,8.23l5.35-4.46-.87,14.1-5.75,2.53-3.08-7.96c-1.34,3.68-1.42,5-1.88,8.47-1.01.12-3.69.2-4.81,0-1.08-1.98-1.15-4.64-.78-6.65l-3.06-1.94c-.59,2.42-.88,4.82-1.01,7.77.1.94-3.97,1.24-4.32.09l-2.12-8.61c-1.44,2.64-1.96,4.62-2.48,7.45-1.82-.49-3.31-2.28-3.31-4.05l.04-11.94-4.13-5.69c-1.42,1.42-2.14,2.3-2.89,2.44-.62.12-2.48-.86-2.82-1.38l-4.07-6.05,3-10.84-3.99-11.21-8.43,9.16,3.4,5.3-2.34,11.75,10.58,14.89-8.14-3.17-4.32,6.39,18.96,13.69,9.02,7.33,5.46-1.42-.33-2.93c2.28-.06,5,.71,7.09,2.97l11.38-3.34,2.08,2.91-4.06,2.36,8.86.83c1.85-5.15,3.5-8.99,6.08-13.53l1.41-3.62,2.41-6.02,5.21-7.61-2.37,10.94-1.35,10.71,13.03-7.48-1.54,9.75,27.92-22.37-20.97.62,6.19-3.56-2.65-1.41,9.39-3.01,17.08-6.4Z"/>
      <path d="M57.59,133.79l-3.56-5.03c-.24-.34-1.38-1.29-1.09-1.48l1.98-1.28c-3.87-2.43-5.98-5.35-5.06-10.77l-3.45,2.68-2.7-4.47,2.7.89,3.3-6.81,15.46,2.75,4.47,5.41-1.42,8.86c-.72,4.47-5.69,5.39-10.19,4.42l3.49,5.09-3.94-.27Z"/>
      <path d="M28.41,128.79l-5.27-2.69.05-7.92c-1.14-.72-2.35-1.23-2.83-1.93-.57-.81-.12-3.73.28-4.3l11.46-4.05,4.56,8.21c-.75,3.37-.93,7.93-3.09,10.17l-5.96,6.19.81-3.68Z"/>
      <path d="M45.8,142.31l-3.99-4.62c-.44,1.1-1.54,3.37-2.38,4.3-.41.45-2.61-.31-2.67-.92l-.25-2.69.44-12.11c.56-1.08,4.35-1.32,5.09-.11l6.6,10.61c1.38,2.22-.45,5.57-2.85,5.54Z"/>
    </g>
  </g>
</svg>