<?xml version="1.0" encoding="UTF-8"?>
<svg id="Camada_2" data-name="Camada 2" xmlns="http://www.w3.org/2000/svg" viewBox="0 0 120 116.74">
  <defs>
    <style>
      .cls-1 {
        fill: #03ff88;
      }
    </style>
  </defs>
  <g id="Camada_1-2" data-name="Camada 1">
    <g>
      <path d="M93.02,99.24l-5.14,3.61c-.07-3.42.58-4.79,2.13-7.33-1.48-.15-2.92,1.47-3.04,3.05l-.31,4.2-7.04,4-8.75-13.64-2.59-5.79-3.75-9.92,4.75-5.09c10.12-10.83,20.88-21.08,32.43-30.48,1.7-.52,6.05-.38,6.79,1.09l3.42,6.75c-10.65,5.39-19.16,12.46-27.4,20.95l-6.32,4.86c12.66.47,23.85-2.92,35.09-8.67l-1.97,13.28c-11.76,4.97-23.37,6.17-36.25,7.03,10.78,3.51,21.2-.19,32.32-3.09-3.71,6.41-8.68,11.19-14.39,15.2Z"/>
      <path d="M48.17,99.1l-3.26-3.88-4.79-4.64c-1.21-1.17-2.32-2.37-3.95-3.42l-4.22-10.7c6.61.43,12.51.82,18.53-1.48l3.39,9.47c-3.46.73-5.55.94-8.21,3.16l8.94-.25c1.58,2.63,3.69,5.86,6.14,8.39-9.25-20.65-15.41-41.78-13.18-64.46l5.23-4.24c1.42-1.15,2.75-1.88,4.6-2.45l-1.66,6.94c-.87,3.62-.82,8.22-.4,11.99l1.3,11.86c3.06,18.12,9.76,35.04,18.82,51l-9.44-1.03-2.76-5.21c-.15-.28-.67-1.32-.66-1.34,0-.02-.78.75-1.04,1l2.36,5.04c-6.27-.18-9.45-5.3-15.74-5.75Z"/>
      <path d="M44,74.04c-4.17,1.3-8.19,1.65-12.24.89l-2.91-9.12c-.36-1.11.5-3.45.99-4.81,1.84-5.21,2.22-11.19,5.1-16l9.1-10.47-.06,13.72-2.72,7.12,4.25-5.21,4.17,22.11-5.68,1.78Z"/>
      <path class="cls-1" d="M33.5,43.33l-9.79-6.97-14.34-9.86c-1.72.34-4.67.96-6.04.35C1.87,26.19-.17,24.04.01,22.21c.44-4.49,1.91-8.36,6.38-8.51,1.9-.06,4.44.74,5.53,2.1.96,1.2,1.11,3.52.73,5.7l23.72,17.86-2.86,3.97Z"/>
      <path d="M113.86,63.2c-6.63,5.25-18.63,8.73-28.25,9.54l7.52-6.84,6.14-5.44,12.46-9.81,3.93,5.04-1.81,7.51Z"/>
      <path class="cls-1" d="M42.85,32.07l-12.33-19.61c-3.2-.04-6.75-1-6.6-4.54.13-2.9,1.15-5.55,3.17-6.93,2.05-1.41,5.7-1.23,7.29.09,3.26,2.71,2.97,5.52,1.11,8.68l11.35,18.98-4,3.34Z"/>
      <path class="cls-1" d="M22.89,113.82c-1.35,1.17-2.67,2.15-4.19,2.92l10.66-14.19,7.96-9.39,4.92,3.81-19.36,16.84Z"/>
      <polygon class="cls-1" points="118.88 115.9 98.28 98.99 103.03 94.97 111.97 105.75 118.88 115.9"/>
      <g>
        <path class="cls-1" d="M119.95,10.35c-.69-3.71-2.85-5.35-5.73-6.14-1.97-.54-5.56.73-6.64,3.19-.57,1.29-.09,4.23.25,5.8l-9.34,14.27,3.63,3.41,10.53-14.54c3.69.61,7.85-3.03,7.3-6Z"/>
        <path d="M101.17,32.2l-3.82-3.13c-1.58.34-2.64,1.12-3.84,2.29l-15.78,15.33c-4.58,4.45-8.17,9.45-13.49,13.07,2.37-5.08,5.95-8.2,9.17-12.45l-7.04-1.72,11.18-2,8.76-9.28c-4.76.23-9.9-.07-14.2,1.39l-10.06,3.41c4.84-6.81,16.83-6.94,25.87-5.85l5.94-6.06c-4.19-2.23-7.52-3.18-11.37-3.78-1.57-1.54-4.84-3.56-6.8-3.75l-16.46,4.53c-4.19,16.15-.31,34.3,4.81,50.76l15.73-16.97,13.91-12.35,11.67-9.53-4.4-3.58.23-.31ZM80.77,25.14l-17.34,7.48c4.15-4.67,11.83-8.29,17.34-7.48Z"/>
      </g>
    </g>
  </g>
</svg>