<?xml version="1.0" encoding="UTF-8"?>
<svg id="Camada_2" data-name="Camada 2" xmlns="http://www.w3.org/2000/svg" viewBox="0 0 127.52 161.89">
  <defs>
    <style>
      .cls-1 {
        fill: #03ff88;
      }
    </style>
  </defs>
  <g id="Camada_1-2" data-name="Camada 1">
    <g>
      <path d="M30.03,155.72l7.2-1.31c.96-.18,3.45.27,3.8.32l6.83-3.47-1.56,5.17,6.33.71,2.31-4.62-6.16-.94,11.46-7.8c1.67-1.13,2.59-2.13,3.72-3.89l6.47-10.04,2.46-4.34c1.6-2.82,1.77-5.98.3-8.86-3.79,8.5-7.57,16.81-14.15,23.1l-5.01,4.79c-5.07,4.84-20.29,9.92-25.93,8.68l-6.52-1.44c-2.48-2.3-5.07-3.71-8.71-3.83-3.68-3.89-6.81-8.19-10.04-12.59-1.3-1.78-1.42-2.66-1.84-4.9C-.76,120.93,0,112.03,1.77,102.58c.59-3.15.94-4.91,2.92-7.46l11.76-15.06c.94-1.2,2.45-2.21,3.78-3.08,4.95-3.2,9.42-6.36,15.29-8.18,9.09-2.81,15.63-.68,24.39,2.11,1.47,1.09,4.27,3.4,5.5,4.82.64.74-.48,2.94-1.26,4.67l4.69-2.02c6.21,11.81,7.79,20.52,5.34,34.29-.19,1.07.57,2.7,1.43,3.51l2.55-6.57.57,6.84c9.86-1.97,14.77-9.84,21.83-13.85,9.13-5.19,15.6-9.95,26.96-7.46l-7.68,30.78c-.45,1.81-1,3.37-1.83,4.97-.15,2.02-.39,4.92-1.07,7.07l-3.99,12.64-2.92-12.15c-7.87-.07-17.9,6.16-21.24,13.74l-1.49-3.17-8.17,4.71c-7.4,4.27-20.55,9.24-27.56,7.95-7.47-1.38-14.41-2.51-21.55-5.95ZM40.16,95.89c8.12-2.73,11.53-11.93,7.6-19.07l-4.97-1.91c-7.5.62-12.36,6.34-12.23,13.77.04,2.38.96,4.77,2.54,6,1.74,1.35,4.56,2.05,7.06,1.21ZM61.9,110.65c6.19-3.81,7.07-11.86,3.68-17.81-1.01-1.02-3.81-2.49-5.64-2.29-8.28.89-13.41,10.42-10.12,17.76,2.13,4.74,7.76,5,12.08,2.34ZM16.33,114.11c8.78-1.93,12.79-10.82,9-18.39-.71-1.42-4.09-3.39-5.71-3.05-8.49,1.81-13.03,10.83-9.71,18.74.65,1.55,4.38,3.14,6.41,2.7ZM119.6,105.41l1.36-6.12-7.03,1.3-1.16,6.26,6.83-1.44ZM108.09,108.59l.91-5.95c-6.46,2.68-7.48,3.63-8.55,10.32l7.65-4.37ZM98.85,136.88l.74-5.11-4.5,2.08,3.56-15.48,1.07-6.66-3.01,4.01.19-5.32-6.49,4.76-.81,5.89,7.96-5.17c-2.61,8.85-4.55,16.71-6.36,25.38-.49,2.33-.82,4.27-.7,6.6,1.25-2.47,1.61-4.15,2.28-6.78l6.07-4.21ZM43.55,140.2c7.82,0,13.89-7.33,12.75-14.89-.48-3.15-2.53-5.4-4.72-6.25-2.87-1.11-6.09-.38-8.47,1.46-3.89,3.02-6.13,8.24-5.66,13.17.31,3.27,2.55,6.5,6.09,6.51ZM78,126.53l5.97-2.31,1.19-5.69-5.33,2.32-1.83,5.68ZM25.02,139.56c6.09-3.53,7.56-11.17,4.6-17.36-1.46-1.16-4.6-2.58-6.45-2.44-4.59.35-7.5,3.42-9.04,6.54-1.85,3.74-2.12,7.99.22,11.45,2.17,3.21,6.95,3.97,10.66,1.81ZM110.09,128.86l.07,3.88c0,.57,2.07,1.24,2.32.73l1.16-2.39c.17-.6.6-1.98.08-2.01-4.13-.23-6.21-2.06-8.46-.25-1.46,1.18-1.85,3.37-1.98,5.96l5.09-1.63,1.72-4.29ZM81.81,147.67l5.39-3.88c.62-.96.86-3.59.94-5.21l-5.78,3.51-.54,5.58ZM77.42,150.07l.82-5.74-6.23,3.45-1.19,5.66,6.59-3.37ZM65.16,155.23l1.94-5.09-7.28,1.71-1.95,5.2,7.29-1.82Z"/>
      <path class="cls-1" d="M81.99,110.77c-.31-4.87-.57-8.96-2.05-13.2l-6.27-17.96,10.83,6.46c.54-4.06.68-8.78-1.6-12.72-2.03,2.36-1.51,4.71-1.1,7.82l-4.08-1.37c-5.67-3.26-10.73-7.49-16.2-11.18l-11.12-4.73c-1.57-.67-2.14-.87-3.73-.45-5.58,1.45-10.88,2.55-16.35,4.46-3.57,1.25-6.59,3.84-10.06,5.87l1.85-7.91-8.05,11.14-7.02,9.71,5.93-27.06c5.12-4.66,10.87-8.62,14.8-14.2,3.63-5.16,3.89-11.71,6.01-18.05l2.56,8.13c1.25,3.95,1.5,7.53,1.34,11.81,4.25,2.44,10.87-2.94,11.54-6.82.63-3.68-1.72-7.79-2.5-11.5l7.26-14.86c2.05-4.2.67-9.3,1.16-14.17,3.52,5,6.87,9.95,8.43,15.84-1.01,3.69-2.97,7.35-3.37,11.07-.34,3.16,2.63,7.05,3.65,9.68l5.61-5.11,4.39,10.95-7.29,11.79c-.09,2.48,1.47,7.04,3.7,8.11,3.09-.2,4.56-3.05,6.31-5.8l4.26,17.4c2.38-1.52.91-3.53,1.15-5.22l1.13-7.87c1.76-2.49,5.46-5.31,6.42-8.2l4.54-13.64,3.51,16.46c-4.41,7.96-6.47,10.04-3.02,18.67l6.17-4.28c1.23,7.28,1.7,8.82-2.2,15.42l-3.82,6.46,10.12-1.02-7.82,6.32c-1.74,1.4-5.35,3.11-6.69,4.59l-8.32,9.15Z"/>
    </g>
  </g>
</svg>