<?xml version="1.0" encoding="UTF-8"?>
<svg id="Camada_2" data-name="Camada 2" xmlns="http://www.w3.org/2000/svg" viewBox="0 0 129.34 129.68">
  <defs>
    <style>
      .cls-1 {
        fill: #03ff88;
      }
    </style>
  </defs>
  <g id="Camada_1-2" data-name="Camada 1">
    <g>
      <path d="M95.67,80.45c3.09,1.39,4.59,1.36,5.66,2.74,1.27,1.64.61,3.83,0,5.74l-4.1,12.84-7.9-4.08,5.22,4.5c1.02.88,1.45,1.81,1.8,4.03l10.93-7.7,6.53-4.21,15.55-9.4-12.12,21.36,10.11-2.4-16.62,20.18-10.46,1.84,7.23-11.28c-.11-.11-.63-1.34-.46-1.61l4.97-7.88-4.8,2.78-14.15,8.86,8.94-1.02c-4.12,3.81-7.22,6.59-8.61,11.23l-10.88,2.05,4.15-7.6-13.82,8.26h-18.53c-2.35,0-4.66-2.44-5.62-4.44l-2.4,1-9.64-4.04,2.27,2.46,5.57,4.96-21.14-.3,4.45-4.9-20.41-10.66,10.43-1.67-3.65-3.01-7.89-7.98,11.11,1.9-2.44-5.01-6.78-14.24,8.7,6.86,6.84,6.33c2.09,1.93,3.42,7.4,4.57,9.86l-2.26,2.51,5.37.99c.54,2.38,2.1,4.28,4.65,4.52l-3-6.49c-.15-.33,1.06-1.94.71-2.04l-2.05-.57-2.62-5.22-2.77-9.08,6.87-3.69-8.45-1.91-1.55-17.44c3.39.34,5.31.35,7.95-.27l-7.4-4.48c1.36-1.55,2.63-2.53,3.71-3.06l1.49-.38c.3-.08.53-1.45.23-1.5-.46-.06-1.59-.13-2.09-.08l-2.75.3,1.53-14.17,9.2-.02-6.99-5.43,4.86-11.1c1.29-2.95,2.45-5.93,6.35-6.13l.83-5.41,1.29-16.65,5.63,11.1,5.29-2.28,2.41,5.39c3.26-1.99,2.27-4.43.77-7.49l5.02-3.08,12.36,2.16,2.79.17c.7.04,1,1.77,1.32,2.45,5.63,5.31,10.83,10.39,14.45,17.57l-3.74,8.28,6.43-4.28c3.43,9.26,5.32,17.68,6.76,26.9-3.19,2.5-6.52,4.4-10.13,5.63-.88-6.55-2.15-11.06-3.66-16.68l-1.77-6.61-.31-2.16c-.08-.55-1.61-.72-2.21-.98-1.23-2.06-3.14-4.91-5.31-6.65,2.39,6.13,4.72,11.38,6.11,17.48l1.91,8.37c2.57,11.22,1.49,27.82-2.04,39.13l-2.13,6.83c-.92,2.96-2.86,5.3-5.11,7.26l-8.16,7.11-6.68-2.09c2.99-.92,5.96-1.29,7.78-2.96,6.26-5.75,8.45-13.48,10.53-21.31,2.13-8.03,2.78-15.58,2.13-23.94-.11-1.45-.08-2.89-.43-4.24-3.01-11.62-4.87-24.03-14.48-32.17-2.47-2.09-4.66-2.37-8.44-1.25,2.15-4.73,7.23-7.77,12.76-6.34l.1-3.03c-4.31,0-7.24-.06-10.78.98l-2.14-5.78c-1.12,2.57-.6,4.89.36,7.06l-9.24,11.09-3.89-7.51,2.33,11.67c-1.27,3.46-3.04,7.17-2.61,10.72l.34,2.87c.07.63-1.31.52-2.45.4-1.33,6.46-2.51,12.9-2.08,19.72l.75,12.03-6.53,5.05,7.24.77c1.39,6.67,3.22,13.07,5.86,19.25l-3.54,9.87,5.13-6.93,7.2,8.38,2.85,3.37c2.23-.79,5.76.1,6.77,2.26,1.08-1.25,2.35-2.35,3.6-2.87,5.37-2.21,8.23-6.59,11.44-11.5l2.76,2.95-1.56-4.48,4.2-9.92c1.73.19,2.51-.61.41-1.38,2.5-10.15,3.67-20.04,3.11-30.96,2.33-2.12,5.66-4.23,8.98-4.57l4.71,1.66-1.76,9.65-.9,7.36-6.26.93Z"/>
      <path class="cls-1" d="M68.15,96.98l4.18-3.56c-1,4.25-4.71,6.24-8.5,7.77-4.53-3.78-6.98-8.7-9.41-14.05-.16,9.27,2.93,16.91,5.99,25.85-1.52-1.47-2.4-3.35-3.82-5.41l-5.57-8.39c-.17-.25-.32-1.89-.49-1.71l-1.53,1.63c-.86-2.09-1.61-4.4-2.14-6.96l-1.42-6.89c-1.45-7.02-.75-14.02-.05-20.75l1.66,5.2,1.12-11.19c.91-9.08,6.34-17.45,14.5-22.09l-3.33,6.56-2.61,8.77c3.54-2.38,5.56-4.16,9.66-4.37-4.52,5.47-7.85,11.08-8.3,17.81l-.77,11.33c1.86-6.75,5.02-12.12,11.4-14.05l1.7,7.36c.74,3.19.98,6.78-.57,10.24l-.87-6.73c-.11-.87-1.51-2.57-2.41-2.79-5.26,4.72-3.95,19.63,1.57,26.4Z"/>
      <path class="cls-1" d="M109.2,86.17c1.63-5.71,3.63-10.21,5.85-15.26-.22-2.45.25-6.76,1.92-8.46l12.02-12.24-4.67,20.06c-.43,1.85-3.16,3.4-4.96,3.85-3.22,4.42-6.14,8.21-10.17,12.06Z"/>
      <path class="cls-1" d="M21.89,64.49l-9.26-5.12-.79,9.57L0,42.4l14.09,6.94c.59,2.28,1.37,4,2.41,5.8l5.39,9.34Z"/>
      <path class="cls-1" d="M102.17,19.67l-9.26,9.02c2.33-5.59,4.13-10.31,5.6-15.79l12.06-10.62-3.14,10.63c-1.42,4.8-3.5,9.13-5.26,6.77Z"/>
      <path class="cls-1" d="M26.1,20.6l1.45,7.39-10.74-11.86,4.76-6.74,2.85,6.53c.75,1.71,1.35,3.01,1.67,4.68Z"/>
      <polygon class="cls-1" points="109.13 49.13 109.08 39.58 116.02 33.17 114.95 43.76 109.13 49.13"/>
      <polygon class="cls-1" points="24.7 37.44 18.22 34.5 17.44 27.7 20.56 29.73 24.7 37.44"/>
    </g>
  </g>
</svg>