<?xml version="1.0" encoding="UTF-8"?>
<svg id="Camada_2" data-name="Camada 2" xmlns="http://www.w3.org/2000/svg" viewBox="0 0 99.87 134.94">
  <defs>
    <style>
      .cls-1 {
        fill: #03ff88;
      }
    </style>
  </defs>
  <g id="Camada_1-2" data-name="Camada 1">
    <g>
      <path class="cls-1" d="M67.41,115.68c-2.4-5.71.32-10.18,1.65-15.91l-9.42,18.76-7.47,3.2-15.42,7.2,3.07-10.42,9.06-5.76,5.4-13.7,9.05-4.35,14.83-7.8c3.11-3.96,3.8-10.14,7.29-14l14.43-12.07-6.04,15.62-5.22,16.64-10.4,7.84.05,8.22,17.57-6.62-10.5,13.55-7.26,9.77-8.35,2.81-9.43,3.18,11.81-17.68-4.69,1.52Z"/>
      <path class="cls-1" d="M15.32,111.81l-.72,12.81-5.7-8.6L0,101.76l8.6,1.87,3.67-9.41-1.83-11.27,7.81-7.46.52,8.3c2.35,2.79,4.53,8.73,4.15,9.92l-2.75,8.44,3.77,8.93c1.05,2.48,2.15,4.34.53,7.57l-9.14-6.81Z"/>
      <path d="M83.24,38.14l-.4-24.31-7.8,11.13c-1.72,2.46-1.04,6.52-1.29,9.26l-.87,9.47c-.15,1.58-1.45,3.62-2.35,5.64l-.07-.72-3.06,8.84-.06-.64-3.66,11.21c-1.65,5.04-10.62,6.46-11.12,4.18l-1.46-6.68,7.67-37.42,4.05,3.74-.39-16.25-.13-15.59-16.19,28.32,6.68-2.13-2.84,8.69c-1.17,3.58.8,9.96-6.28,20.87l-3.78,9c-.98,2.34-3.69,3.62-6.09,5.43l-6.48-6.95,4.7-16.86,2.37,6.12,1.64-3.65-1.24-32.99-8.29,14.18-9.78,17.52,7.98-3.16-3.82,9.6c-.98,2.47-1.63,4.22-2.74,6.61l-3.84,8.28c3.55,4.04,6.47,7.59,8.94,12.36l.66-3.24c6.07,4.49,8.16,7.95,8.01,14.87l-5.98,4.39,3.16,5.1c1.85-2.49,3.41-4.61,6.18-4.84-.45.61-2.02,2.21-1.96,2.98.12,1.57,1.91,3.87,3.19,5.85-2.96.23-5.1-1.07-6.99-3.21-1.42-.4-4.63,1.84-4.53,3.65.08,1.5,2.32,3.48,3.71,4.33l-6.3,23.16,7.09-2.67,3.43,3.34,5.16-20.24,6.36-3.96-2.38-4.95,6.09-3.92-3.58-6.05c.71-1.59,2.67-4.92,4.51-5.79l13.14-6.2.21,3.01,12.68-6.98,1.14-16.24,1.56-20.69,5.72,6.24-.26-11.04ZM39.16,87.69c.52-3.21-.48-7.03-1.72-9.77,2.58-2.41,5.05-5.36,6.86-8.62-1.1,3.88-.55,7.78,2.22,10.95-3.19,1.35-5.68,3.85-7.35,7.44Z"/>
    </g>
  </g>
</svg>