<?xml version="1.0" encoding="UTF-8"?>
<svg id="Camada_2" data-name="Camada 2" xmlns="http://www.w3.org/2000/svg" viewBox="0 0 115.47 131.64">
  <defs>
    <style>
      .cls-1 {
        fill: #03ff88;
      }
    </style>
  </defs>
  <g id="Camada_1-2" data-name="Camada 1">
    <g>
      <path d="M23.52,111.94l13.12,1.71,13.87.67-16.75-3.61-13.05-2.52c.18-4.32.52-8.63-1.17-11.93-2.37-4.62-3.03-6.14-1.36-11.91l5.12-7.85-.28,13.92c2.42-3.3,3.4-7.25,5.9-9.58l12.35-11.57.84-5.37-6.93-11.65-3.6-6.14,2.44-14.95c.81-4.97,2.17-9.81,3.72-14.59,10.12,1.99,19.67,1.91,29.66,2.96l15.08,2.63,5.94.76c-.89-3.82-3.85-2.84-6.58-3.28l-40.3-6.5-.75-3.15-4.86-5.81-.37,8.33-7.44,5.48c-.49.36-.96,2.65-.4,2.82l2.99.87c.43.82,1.73,3.77,1.6,5.01l-.74,6.98c-.76,7.2-3.43,13.93-3.98,21.1-.17,2.3-.03,4.61-.71,6.77l-2.46,7.89-2.06-9.49c-.6-2.79.52-5.32,2.6-6.8l-.11-12.11.54-11.03-5.15-3.31,1.62-5.87-3.46-7.02-2.25-3.46L35.43,0l7.62,1.82,43.19,7.06,2.54-4.17,3.7,5.43,11.2,5.92-8.65,10.75.06,6.07-6.21,1.88-4.37,19.52-5.88,10.66.34-12.56-4.09,4.44-2.81,1.62-10.06,9.21-.98,5.39,8.34,15.35,1.7,6.11c1.27-4.35,2.14-8.01,4.45-11.63l.51,8.23-2.55,14.1,4.33,4.63c.33,1.08-.88,3.49-1.8,5.03l4.68,9.35-9.18,3.73-6.84,3.71c-.82-.5-1.48-2.15-1.65-3.55l-44.86-6.71-2.23,4.92-7.67-7.18-8.23-7.33,8.04-5.93.53-7.38c3.25.24,4.84.03,6.41-2.54,1.42,1.13,3.02,2.42,4.24,3.99,1.42,1.83-4.31,3.7-7.1,6.79l5.87,4.61-.55,5.78,6.07-5.14ZM56.56,108.46l5.75.63c1.72-4.23,3.18-9.25,2.65-14.22-.21-1.97-1.07-5.66-2-7.3l-7.57-13.31c.17-2.9,1.15-7.39,2.05-10.24l14.46-12.45c3.88-3.34,7.85-15.15,6.04-18.7-.48-.94-2.11-1.71-3.42-2.19l2.05-2.61-18.89-3.57-13.75-.97.28,3.75-2.21-2.21c-2.3,2.66-4.16,6.33-4.49,10.3l-.46,5.66c-.1,1.27.74,4.1,1.4,5.25l9.41,16.32-1.4,9.36-10.55,9.16c-1.33,1.16-3.23,1.21-2.75,3.88-3.18,2.5-4.46,6.49-5.21,10.53-.83,3.04-.81,5.89.51,8.88l28.1,4.04ZM67.21,116.38l-11.88-1.95c2.18,2.18,4.31,2.48,7.3,2.93,1.38.21,3.23,1.96,4.58-.98Z"/>
      <path class="cls-1" d="M104.94,96.2c-.58,2.22-3.17,4.07-3.46,6.61l13.99-6.16-10.88,21.89-4.39-.85-11.95,6.9,8.23-14.18-14.32,8.07-2.11-11.98,6-24.36c.7-2.83-.92-7.27.61-9.88l4.22-7.19,7.09-16.37.76,17.64-3.29,6.02c-1.7,3.12-.69,6.63,2.29,8.94l-1.82,10.65,5.36-5.92,5.9-6.55-.07-3.73,4.79-3.02-.2,5.46c-1.88,2.03-3.24,4.47-3.96,7.24l-2.79,10.77Z"/>
      <polygon class="cls-1" points="107.28 58.3 107.88 49.29 112.51 44.83 113.85 51.26 107.28 58.3"/>
      <polygon points="77.58 76.94 75.28 73.6 78.4 69.79 77.58 76.94"/>
      <path d="M58.36,58.45l-3.33,3.12-2.93,14.03-1.75,9.1c-1.02-.37-2.43-1.15-3.08-1.74l3.55-21.37-3.46-6.47-6.56-14.4c4.34-.41,7.41,1.23,8.6,4.45l.7-3.28c.14-.67,2.22-1.33,3.2-1.12l19.06,3.96c-2.89,4.1-5.55,6.97-9.25,10.14l.34-4.04-5.67,5.56c.21.05.9,1.75.56,2.06Z"/>
      <path d="M39.14,102.43c1.5-1.52,2.88-2.98,4.17-5.42l-5.69,2.91c-2.05,1.05-3.83,1.53-6.44.75l3.45-3.68,5.8-4.9,8.45-6.39,5.47,8.44,2.83,4.37,2.58,3.99c.31.48.3,2.21.01,2.73-.34.62-1.88.46-2.92.28l-17.72-3.07Z"/>
    </g>
  </g>
</svg>