<?xml version="1.0" encoding="UTF-8"?>
<svg id="Camada_2" data-name="Camada 2" xmlns="http://www.w3.org/2000/svg" viewBox="0 0 139.36 159.37">
  <defs>
    <style>
      .cls-1 {
        fill: #03ff88;
      }

      .cls-2 {
        fill: #fff;
      }
    </style>
  </defs>
  <g id="Camada_1-2" data-name="Camada 1">
    <g>
      <g>
        <path class="cls-2" d="M103.08,78.43c-1.37,1.53-3.38,2.28-5.66,2.33l-.34-2.89c4.83-.82,6.3-3.45,7.01-8.68,1.42,1.03,2.86,3.3,3.02,4.73l-4.03,4.5Z"/>
        <path class="cls-2" d="M90.85,92.1l-.24-3.19,11.54-1.21c.47-.05,1.33.94,1.05,1.28s-1.22.77-1.7.88l-10.65,2.24Z"/>
        <path d="M126.55,118.48l11.37-22.27-15.81,11.81,4.94-28.49c.67-3.84-.32-7.84-2.11-11.08l-4.82-8.74-3.28,19.91c-2.54-12.34,1.02-22.62,2.86-34.87l-6.23,1.76c-1.64.46-3.06,1.61-4.66,1.88l-9.6,1.61-14.36,3.9.13-4.76-3.83-.99,5.63-7.49,16.61-21.92c1.13-1.5,2.27-2.4,4.12-3.22l1.86-5.18-5.43.93-4.16,5.79-10.75,12.81-4.01,4.5-3.01,4.12-8.6,11.15,5.39.11-12.82,4.43c-2.96-.19-5.72.41-9.16.96,3.68-1.81,7.48-3.64,11.53-4.86,2.65-.8,4.68-.87,5.81-4.25-6.31-1.43-15.34-.31-17.56,4.96-4.16-4.95-7.9-10.48-11.25-15.79-1.72.17-3.49-.02-4.76-.55l-2.25-.94c-.48-.2-.14-1.9.14-2.86l-12.08-14.9C21.82,10.44,17.55,5.41,12.34,0l6.29,21.27,4.13-3.19,9.38,13.71,4.23,6.67c3.13-.41,3.73.33,5.14,2.2l9.46,12.53-5.05,4.12-.08,6.41-12.77,3.05c-4.48,1.07-8.85,2.72-13.34,4.25l-5.03,1.72,2.53,2.97-5.22-2.3,8.1,48.12c2.08,4.06,3.57,7.89,4.83,12.19.87,1.97,2.41,2.34,4.07,3.18l9.21,4.67-5.09,1.18,3.39,4.24,19.63-1.63-3.39-3.36c2.31-.32,5.89-.23,7.74-1.15l8.39-4.19-9.31-.27-11.83-1.51,34.12-3.92,3.38-9.23,2.68,8.7,7.09-.26c-6.48,2.99-12.75,4.24-19.18,5.4l-5.08,5.29,8.4,1.27c-4.25,2.53-7.23,3.23-11.35,4.8l40.6.19-3.53-15.69-5.37,4.33c1.97-6.49,2.61-12.53,2.85-19.05l2.65,6.88,4.77-25.27,3.79-22.14.7,13.82c.29,5.61-1.8,11.45-2.38,16.98l-.83,7.93c-.2,1.91-.69,3.26-1.02,5.56l-1.5,10.49,4.91,6.23,5.58,7.05,4.32-6.74,4.36-6.75,9.26-14.08-12.69,6.18,2.29-4.37ZM96.22,61.19c1.38-.94,2.2-1.06,3.85-.74,2.98.57,5.89,1.68,5.6,5.29l-6.03-3.23c-.47-.25-2.53.68-2.31,1.16l1.09,2.42c.38.86.88,2.35.92,3.17.04.87-1.98,2.08-2.71,1.58l-3.05-2.14c-1.51,2.61-1.11,4.83,1.14,6.99l-1.78,1.69c-.45.43-1.97-1.12-2.26-1.84-2.07-5.05.86-11.17,5.54-14.34ZM83.33,100.62l-.86,11.41c-1.38.55-2.89,1.16-3.42,1.51l-2.52,5.66-36.56,4.84-7.07.67-2.94,3.54,1.83-6.54-2.12-.14c-1.98-12.46-3.74-24.58-5.09-37.89,2.49.28,4.21,1.8,5.3,4.39l2.2-4.99c-2.35-1.08-3.75-1.68-5-3.57,12.65-4.14,24.21-7.37,36.65-10.18l16.27-3.68-.35,5.74,4.76-3.04-1.05,29.02,4.98,1.31c-1.28.18-4.9.68-5,1.93ZM88.87,99.48l.93-2.88,12.05.07c-4.08,1.71-8,2.32-12.98,2.81Z"/>
        <path d="M78.47,78.85l-2.58-7.02-7.1.6c-5.32.45-10.39,1.87-15.51,3.22l-9.43,2.5-10.23,3.49c-.88,3.87-2.31,6.82-4.08,10.52l.95,11.01c.43,5.02,1.37,9.35,3.25,13.82l2.33-3.75c.75,2.15.62,3.21.05,6.12l9.15-.34c5.2-.19,10.49-.05,15.61-1.19l11.95-2.66c.81-1.98,2.22-3.69,3.9-4.76l2.31-16.48c.7-5.03.07-10.14-.56-15.09Z"/>
      </g>
      <path class="cls-1" d="M137.76,127.55l-8.83,4.4c-.33-3.65-2.67-9.57-1.12-13.4,1.82-4.5,5.57-8.38,8.14-12.63.13-7.92-2.3-15.29-4.92-22.79-2.34,5.91-2.42,12.77-6.48,17.29l-14.35,15.99c-.34,4.91,1.14,10.88-.95,15.26-2.21,4.6-12.39,8.98-16.84,4.42,1.73-5.29,2.68-9.86,2.52-15.23l-.32-11.07c-4.91,7.17-7.55,15.26-13.92,20.43-2.84,2.3-5.96,4.15-9.22,5.8l-3.63-5.04.31,6.65c-.86.4-1.72.8-2.59,1.19l-1.13,2.67-4.09-2.73c-8.28-5.52-10.32-5.02-19.84-3.94l5.12,8.3c-11.44,3.87-14,1.05-24.01-5.23l-21.6,3.39,17.37,6.85c2.95,1.16,5.71,4.6,8.29,7.19l46.88,1.23,4.42,2.57c6.55-.32,12.77.04,19.27.23l34.12-8.34,9-8.23-1.6-15.24Z"/>
    </g>
  </g>
</svg>