<?xml version="1.0" encoding="UTF-8"?>
<svg id="Camada_2" data-name="Camada 2" xmlns="http://www.w3.org/2000/svg" viewBox="0 0 134 147.49">
  <defs>
    <style>
      .cls-1 {
        fill: #03ff88;
      }
    </style>
  </defs>
  <g id="Camada_1-2" data-name="Camada 1">
    <g>
      <path d="M93.89,116.76l-2.38-5.81,12.21,3.11,6.44,2.7c.58-.84,1.62-1.97,2.44-2.11,7.22-1.25,13.37-3.45,20.21-6.1l-6.87,8.34-9.74,9.26-19.81,8.01,15.79,4.42-13.9,2.26-8.19,1.02,3.76,1.02c-.83,3.03-3.12,3.61-5.74,3.7l-28.12.92,11.27-7-7.73-3.31,10.44-1.84,11.27-3.29-7.73-.46-8.62-.43c-1.53-.08-4.15-1.1-5.7-1.6l.52-3.62.85-5.95-4.53,3.52-3.23,2.99-7.41-4.12-10.26-12.99-4.18-5.76,11.6-.42-13.12-6.13c-1.01-5.18-4.2-11.08-4.39-16.87-.21-6.65,1.88-13.03,2.74-19.28l8.23,11.28-2.74-10.73-1.02-4.9c1.96-5.95,5.54-11.13,8.82-16.46l3.83-6.22,6.65,2.62-1.72-6.76,3.48-4.1,10.61-5.08c5.39-2.58,10.29-5.03,16.41-6.72l-9.64,11.82c-1.08,1.33-1.73,2.96-2.32,4.66l-7.31,20.93,1.14-10.54.84-7.16c-3.64,6.09-5.73,12.65-7.22,19.47l-7.87,8.04,7.35-2.64.33,9.05-7.74,11.78,6.2-3.69,3.83-2.49,7.6-4.53,6.58,2.3-2.04-5.16c8.2-2.21,16.42-2.36,24.37.32l2.5-.52c.64-.13.8-1.98.5-2.61l-4.19-8.81,1.86-6.71,7.34-9.18-2.06,11.27c-.28,1.52,1.38,4.37,2.47,5.43l6.3,6.15c2.55,5.33,1.23,11.83,4.44,13.8.52.32,1.97-.67,2.24-1.28l3.34-7.45,1.62,12.33-3.24,8.42-10.37,9.47c-1.22,1.12-2.37,2.56-3.58,3.13-.57-.51-1.4-1.42-1.74-1.19l-1.61,1.05c-1.92,1.25-2.97,1.44-5.15,1.48-5.53.1-10.99.7-16.51-.1-6.56-.96-12.07-4.75-17.7-8.43l.57,5.3,2.03,11.66,2.54-10.49,10.43,6.59c.61.97,1.81,2.21,3.05,2.59,1.98.6,2.63,1.83,3.97,3.06l6.38,5.83ZM82.88,94.16l9.23.73c4.51-.63,9.78-2.05,13.14-5.1l7.07-6.42-3.19-3.9-2.84-4.15-.7,2.66c-11.88-5.68-23.18-4.9-32.67,3.83-.44.41-.8,2.11-1.32,1.92l-2.18-.81-9.89-.9,10.82,5.38c3.41,1.69,6.72,3.66,9.51,6.19,1.68,1.53,2.44,4.33,5.92,3.34l-2.91-2.78Z"/>
      <polygon points="59.83 139.98 45.74 137.46 42.87 141.77 29.66 127.72 41.83 126.52 51.02 133.48 59.83 139.98"/>
      <path d="M119.34,105.56l4.47-8.57c1.2-2.29,1.4-4.5,3.81-5.72l6.37-5.97-3.06,11.84-11.6,8.42Z"/>
      <polygon points="119.63 138.23 111.98 134.54 125.98 128.7 119.63 138.23"/>
      <polygon points="112.26 105.49 106.88 103.62 115.89 98.63 112.26 105.49"/>
      <path d="M84.14,83.22l3.06.5c.66.11,1.2-1.63,1.29-2.22l-2.65-2.2c1.55-1.4,3.17-2.46,5.19-2.99,1.81-.47,4.05.86,5.65,2.19,3.42,2.84,3.44,7.09.72,10.45-2.24,2.76-5.61,3.42-8.87,2.08-2.97-1.22-4.95-4.44-4.39-7.81Z"/>
      <g>
        <path class="cls-1" d="M26.33,80.27l.88-17.36.54-.88c-1.39-.32-1.74-1.86-2.68-2.62l-5.32-4.35c-2.58-.56-6.58-.18-8.88-1.46L0,47.59l7.4,12.52c7.46,2.48,9.99,2.6,12.84,10.11l-6.43.89c3.48,5.35,4.08,6.61,10.42,8.52l2.1.63Z"/>
        <path class="cls-1" d="M14.48,20.08c2.06,1.81,2.45,6.03,3.34,8.29l-6.56.03,3.61,9.53,11.53,3.23c1.51,1.52,3.18,5.34,2.39,7.32-2.08,1.69-4.69.73-7.41,0l6.93,12.59,9.52-15.6,6.06-19.7,22.46-10.62-2.68-1.88c-5.98.03-11.95.88-17.72-.38-5.33-1.16-9.32-5.18-14.38-7.97l3.12,6.67c1.52,3.24,3.45,5.67,6.06,8.29-1.28,4.04-8.64,4.49-11.33,2.41-2.56-1.97-3.46-5.96-5.14-8.78l-13.31-5.2C7.22,6.86,5.12,2.81,1.96,0c.69,5.24,1.45,10.35,3.9,15.01,2.8,1.76,6.19,2.94,8.62,5.07Z"/>
      </g>
    </g>
  </g>
</svg>