<?xml version="1.0" encoding="UTF-8"?>
<svg id="Camada_2" data-name="Camada 2" xmlns="http://www.w3.org/2000/svg" viewBox="0 0 433.22 838.38">
  <defs>
    <style>
      .cls-1 {
        fill: #fff;
      }
    </style>
  </defs>
  <g id="Camada_1-2" data-name="Camada 1">
    <g>
      <path class="cls-1" d="M146.78,213.6l-65.71-57.53-23.42-50.43L45.71,0,2.62,98.2l5.87,81.09,138.29,34.31ZM39.94,38.03l7.95,70.34,25,53.83,36.28,31.76-91.23-22.64-5.17-71.38,27.17-61.92Z"/>
      <path class="cls-1" d="M379.61,652.13l33.15-186.48-75.54-159.03-5.01,75.09-19.96-38.73-12.48-144.82L107.36,88.65l74.96,96.31,5.67,43.02-104.01,88.81-1.64,1.41-4.7,99.25-17.07-14.53-40.71-100.89L0,513.61l94.71,135.88-36.25,3.66,94.91,67.81,25.87,117.42,147.04-64.1,1.13-.49,105.82-131.73-53.61,10.07ZM321.15,765.6l-134.77,58.75-24.08-109.29-76.45-54.62,26.79-2.7L10.3,510.9l15.66-167,26.25,65.04,34.45,29.33,5.46-115.28,106.5-90.93-6.73-51.1-45.69-58.7,144.06,82,12.2,141.55,37.34,72.44,4.85-72.69,57.71,121.49-35.12,197.58,41.26-7.75-87.34,108.73Z"/>
    </g>
  </g>
</svg>