<?xml version="1.0" encoding="UTF-8"?>
<svg id="Camada_2" data-name="Camada 2" xmlns="http://www.w3.org/2000/svg" viewBox="0 0 260.81 328.54">
  <defs>
    <style>
      .cls-1 {
        fill: #03ff88;
      }
    </style>
  </defs>
  <g id="Camada_1-2" data-name="Camada 1">
    <g>
      <path d="M40.78,257.81l-1.53-26.65-30.67,5.55-5.16,47.1-3.42,30.76,15.32-2.18,2.01-21.46,12.51.12,2.14,33.21,12.89.68-2.53-42.65-1.54-24.46ZM18.06,279.98l3.12-32.74,6.3-.74.28,5.74,1.33,27.25-11.03.49Z"/>
      <path d="M79.26,213.06l-1.21-24.62-.62-10.91-29.78,5.29-2.17,25.76c-.64,7.66-1.28,15.02-1.2,22.69l-.48,15.71,12.01.79,1.29-22.15,10.71.04.53,11.35,1.16,20.12,12.26-.47-.48-7.19-2.02-36.4ZM57.68,215.93l2.32-23.95,6-.52,1.26,24.08-9.59.39Z"/>
      <polygon points="69.13 270.06 69.18 286.05 66.67 278.77 60.99 262.03 57.59 251.85 45.09 250.98 47.82 304.81 58.74 307.52 58.55 297.58 58.57 286.8 68.32 312.62 81.42 315.61 81.43 272.41 81.6 259.98 69.04 260.62 69.13 270.06"/>
      <polygon points="219.63 260.53 219.72 269.91 214.33 270.07 214.25 244.3 203.42 245.02 204.24 278.75 204.71 295.74 214.65 294.83 214.51 279 219.71 278.91 219.61 283.98 219.44 298.35 219.25 307.1 230.89 305.68 230.96 288.44 231.01 240.88 219.5 241.99 219.63 260.53"/>
      <path d="M85.5,260.97l.99,46.15,25-4.2,2.44-49.62.31-4.58-28.95-1.22.22,13.48ZM95.57,260.72l7.45.27-.31,17.2-.36,15.16-6.81.87.03-33.5Z"/>
      <polygon points="169.19 243.1 188.77 241.25 190.49 227.9 196.94 184.23 183.74 187.1 181.94 205.86 180.08 224.29 179.4 230.58 177.82 230.64 172.14 190.8 159.79 192.35 168.63 239.41 169.19 243.1"/>
      <path d="M258.78,250.76l-23.83,3.86-.15,27.63-.09,15.55,26.11,1.6-2.03-48.64ZM243.27,288.78l.06-19.3.1-6.78,6.7-.46.89,26.41-7.75.12Z"/>
      <path d="M192.91,241.1l29.93-2.3-.16-3.54-1.36-36.25-23.97,3.59-1.78,16.24-2.67,22.26ZM205.03,210.21l7.23-.55.08,7.63.46,12.92-8.87.46,1.11-20.47Z"/>
      <polygon points="199.69 257.86 199.49 245.01 188.39 245.78 189.04 262.49 190.96 311.53 215.62 307.89 215.63 298.02 200.7 299.5 199.69 257.86"/>
      <polygon points="110.42 226.02 110.68 244.82 130.39 245.87 130.08 235.81 119.63 236.04 119.65 220.73 128.87 220 128.9 210.16 119.81 210.88 119.82 198.75 130.88 197.57 131.39 187.08 109.85 190.62 110.05 203.54 110.42 226.02"/>
      <polygon points="106.59 232.99 94.68 233.33 94 205.3 105.89 204.58 106.1 191.24 82.5 194.64 83.47 213.82 85.03 243.66 106.78 244.65 106.59 232.99"/>
      <polygon points="184.82 257.8 173.99 258.63 175.95 304.45 186.67 303.58 186.15 291.25 184.82 257.8"/>
      <polygon points="173.81 255.36 184.69 254.6 184.36 246.26 173.38 247.08 173.81 255.36"/>
      <path d="M140.34,250.89l-22.05-1.98-2.6,51.1-1.17,20.76,11.35-1.37.04-30.54,7.16-.1.27,8.34.96,22.16.25,6.68,11.31,2.57-3.41-46.07-2.11-31.58ZM125.83,279.96l1.41-18.55,4.53-.21.94,18.31-6.87.44Z"/>
      <path d="M134.34,246.19l10.52,1.68-.56-21.61c1.64,2.13,2.5,4.31,3.43,6.63l5.53,17.68,13.65,1.77-5.13-13.58-5.72-14.59,5.59-.66-4.04-23.24-25.39-.48.99,22.67,1.12,23.73ZM149.45,207.77l.43,8.53-7.02.76-.6-9.11,7.19-.18Z"/>
      <path d="M166.51,278.52l4.55-.63-.4-5.14-1.44-16.61-24.45-3.09,1.24,22.24,1.77,28.71,9.38,1.23-.95-24.65c1.5,2.16,2.1,4.15,2.93,6.35l4.57,25.23,11.28,3.36-4.48-19.79-3.99-17.21ZM154.89,271.62l-.49-9.12,6.25-.03.38,8.39-6.14.76Z"/>
    </g>
    <g>
      <polygon class="cls-1" points="148.04 43.32 161.32 52.31 159.78 49.86 155.73 11.2 154.18 10.47 154.36 10.63 145.84 33.16 148.04 43.32"/>
      <polygon class="cls-1" points="181.46 134.65 185.2 117.38 183.46 116.17 185.8 114.57 192.67 82.79 183.43 59.8 180.78 64.46 181.58 55.19 175.47 39.99 169.19 64.87 164.57 57.5 158.75 66.67 170.65 79.54 180.25 73.23 184.3 92.77 174.41 101.57 163.15 146.35 167.82 154.59 164.59 164.98 165.34 164.71 197.03 132.24 181.46 134.65"/>
      <polygon class="cls-1" points="80.73 89.75 84.85 79.04 95.29 76.84 108.2 64.75 105.18 56.51 118.64 43.87 121.39 32.61 113.78 25 106.18 30.34 102.46 23.76 99.2 0 94.02 9.72 94.13 9.77 92.84 20.14 91.17 15.05 87.67 21.62 89.47 42.08 87.55 43.43 87.12 50.91 90.58 58.44 86.84 55.68 85.88 72.4 77.43 66.48 66.44 44.07 60.61 95.19 64.07 99.27 66.15 99.27 66.25 101.84 92.95 133.36 82.6 134.22 103.35 146.42 92.54 102.12 80.73 89.75"/>
      <path d="M163.57,115.71l3.46-14.6,4.61-3.48,5.43-14.58-3.08,1.59c-.61.32-1.2,1.14-1.54,1.81l-.51-.39c-.11-.08-.48.13-.61.21l-1.32.78-3.38-4.2-3.22-3.8-9.63-7.03-.33-5.94c.98-.69,1.96-1.75,2.37-2.73-1.67-1.53,1.65-.53,1.51-2.31-1.5-.37-2.22-1.23-2.92-2.37l-1.67-2.72-5.22-2.78c-1.57-.84-2.9-1.85-4.71-2.23l6.86,6.06,2.94,2.24c.1.08.44.19.44.3v.56s2.32,1.11,2.32,1.11l-1.69,2.63-4.67-.54,3.95,1.69-1.9,6.84,5.07,4.99,4.52,4.25,2.71,2.49c.89.82,1.57,1.59,2.24,2.68l.32.52c.05.09-.13.21-.33.37,1.16.25,2.29.68,3.45,1.26l2,1-1.71,7.27-3.43,1.56-.45,1.89-2.27,7.77-1.36,5.02c-.11-.62-.01-1.24.09-1.95l1.95-12.49c-2.28-.54-4.26-.95-6.63-1.08l4.09,3.31-7.61,42.85-.94,5.25-.6,3.9,2.98,2.14-2.32,4.98-5.47.16c-2.49.07-4.85-.18-7.36-.32l-4.48-.25-8.72-.16,5.77-1.76,1.95-.54,3.82-.79-.96-.99,2.58.52,5.49-.91-2.71-.27c-4.11-.41-8.09-.43-12.29-.41-.75,0-1.26.35-1.6.99l-.5-.85c-.12-.2-.84.11-1.11.11l-5.28.11-6.71.24c-.16,0-.73.08-.77.24l-.15.57-1.2-.79,2.47-2.42-9.15-46.1-.62-3.63-.74-3.86-4.21-1.38c5.9-1.72,11.35-3.42,17.19-4.31l7.5-1.15c4.86-.75,11.09-1.51,15.6-.83,1.27.19,1.72-.12,2.82-.6l7.82-3.44c-3.38-.6-6.17-.79-9.21-1.03l-2.58-.21-9.03-.11-6.97.12-3.35.17-8.46.83c-4.22.41-8.22,1.24-12.53,2.04.71-.55,1.87-1.59,2.65-1.77l8.56-2.05,4.71-1.1,4.07-.64c.13-.25.38-.75.52-.64.11.08.54.46.68.45l4.11-.36,2.76-.22,6.49-7.97,2.37-2.71-4.57-.08c-.26.29-.4.49-.53.42-.1-.05-.57-.4-.68-.4h-5.2c-.19.1-.96.69-.86.54.07-.11-.47-.56-.6-.54l-2.55.35-3.55-.11-.77-.06c-.16-.01-.01-.68.15-.69l.57-.03c3.74-1.12,7.23-2.17,11.07-2.9,1.51-1.81,1.54-3.73,3.73-5.54l-1.71.19c-.92-.28-2.19-.21-3.3-.11-3.53.31-6.84.98-10.23,2.29l.07,1.96-.1,2.86c0,.14-.1.54-.14.68-.03.09-.32.07-.35-.02l-.14-.51c-.43-1.62-.79-3.11-1.84-4.38l-.32,5.3c-.04.62-.23,1.23-.71,1.56l-3.48,2.44-6.22,4.39.03,1.86c-.5,1.06-.89,2.32-1.47,3.17l-1.43,2.07-.48-2.15-2.25,2.81-2.46-1.42-.59.89.06-1.14-4.55-2.7,2.98,7.97,2.61,7.18,1.46,1.16,1.81,1.52,4.17,17.5,2.73,10.95,2.31,9.88,2.83,11.8-1.02,1.42-4.03.44,5.02,8.4c1.89.36,3.75.45,5.75.38l3.87-.15,4.6-.15,2.71-.13,1.77.14,16.72.09c2.44.01,4.69.58,7.1-.19l1.63-2.62-.98-.21c-.16-.03-.04-.64.12-.66l.56-.06c.38-.04,1.09-.16,1.29-.47l2.78-4.33-4.06-.69-.88-1.69,1.76-6.91-.52-.46s.52-.17.73-.23l2.82-11.82c-.15-.6.16-1,.28-1.51l3.42-13.65ZM100.4,94.41l-.53-1.58c-.08-.23.08-.8.24-.99.19-.22.91-.1,1.11.12.71.8,1.67.11,2.3.14l4.67.17-6.44,1.76-.55.77c-.12.17-.74-.21-.81-.4Z"/>
      <path d="M153.41,96.93c-8.63-1.97-18.89-2.88-27.57-1.71l-12.06,1.63c-1.73.23-3.26.71-4.75,1.38l3.63,1.21,1.21,7.32.67,5.53,5.5,38.83,2.77-.39,2.76-.12,4.21-.24h7.14s5.17.22,5.17.22l-.15-1.35-5.87.71h-3.75s-2.87-.26-2.87-.26l-5.7-.49-2.09-2.24-1.25-10.65-2.8-22.17-1.39-13.07,2.02-2.11c9.75-1.85,19.09-1.74,28.87-.24l2.4,2.57-2.42,20.41-1.54,13.7-1.4,13.07c-.07.61-.68,1.53-1.16,2.25l2.91.37,3.44-24.82,1.37-9.94.79-5.76c-.15-.26-.42-.72-.38-.96.04-.23.37-.58.66-.87l1.62-11.83Z"/>
      <path class="cls-1" d="M140.51,143.07c1.81-1.86,2.01-3.75,2.23-6.22l.47-5.4.33-3.32c.1-.96.02-1.5-.4-2.39-2.41-5.17-4.75-10.22-7.46-15.27l-.09-7.31-1.68,3.11.12.88c.03.19-.77.32-.87.51l-1.61,2.92c-1.05,1.91-2.25,3.87-3.07,5.83l1.77,6.19.42,1.27-2.88,5.29c-.36-.56-.6-1.1-.78-1.72l-1.09-3.91-3.18,11.67c.36,1.76.44,4.16,1.19,5.93.81,1.9,2.56,3.31,3.6,5.16-.13-1.71-.1-2.87.34-4.27.55-1.76.93-3.37,1.66-4.87l.82,2.09,5.25-7.04.22-5.44,2.05,5.78.84,3.8c.89,2.85.55,5.53-.03,8.73.82-.33,1.25-1.45,1.8-2Z"/>
      <path d="M112.61,60.49l-1.71.71,3.12,4.18,2.91-1.22c7.33-3.08,17.11-3.7,25.07-3.09l2.41.19,2.05.08-6.66-1.75c-2.17-.57-5.78-.69-8.49-.79-.49.58-.9,1-1.65,1.09l1.19-1.02-2.64.03-2.64.23-9.88,1.15c5.15-1.85,10.15-2.95,15.19-3.96,1.03-1.09,1.97-2.55,3.21-3.12l6.05-2.76-2.99-.26-4.67-.33c-.83-.06-2.13.21-3.01.26l-3.39.22c-.7.04-.89,1.05-1.09,1.45-.42.88-1.92.73-2.72.64l-6.62,3.47-3.05,4.6Z"/>
      <path d="M126.24,34.25l1.56.86c.18-.36.5-.88.67-.74l.96.77c.23-.94.44-2.16.49-3.19-3.79-3.1-3.97-5.17-2.86-9.57.91-1.67,2.62-2.58,3.98-3.79.54-.48.8-.43,1.54-.39,2.2.14,4.37.34,6.32,1.61l.74,1.22c1.66,2,2.55,4.73,1.57,7.23-.38.99-.54,1.79-.7,2.9-.74-.2-2.51.72-2.48,1.56.05,1.2.27,2.19.51,3.5l4.74-3.47,1.51-4.59c.38-1.16.42-2.44.51-3.66.12-1.55-.41-2.64-1.55-3.83-1.34,2.54-1.41-1.59-3.32-4.91-3.23-.83-6.33-1.35-9.66-1.53l-4.04,3.43-2.93,2.53-1.09,8.03,1.79,3.04,1.74,2.98Z"/>
      <path d="M135,29.54l-.46-.52c-.15-.16-.74-.02-.96.06-1.68.59-2.52,1.91-2.36,3.75.12,1.27-.59,3.05-.4,4.29.3,1.92-.32,3.01-2.11,3.75-1.25.52-2.54,1.03-3.95,1.42l-1.75,3.28,1.31,1.66,1.19,1.68,1.99.34c1.66-1.02,3.19-.87,4.69-2.08.57-.08,1.38-.23,1.49-.84l.45-2.61-1.81-1.17,2.17-2.42c.34-.38-.06-1.67-.07-2.22l-.11-4.86c-.01-.58-.61-1.33-1.03-1.93.14-.56.89-1.22,1.7-1.59Z"/>
      <polygon points="134.12 164.9 128.4 164.04 117.44 162.09 119.75 166.51 127.18 170.13 132.82 168.98 134.12 164.9"/>
      <path d="M144.68,165.58l-5.85,4.66c-.22,1.65-.7,3.17-2.06,4.16-1.64,1.2-2.45,2.79-3.05,4.91l-.31-3.49c-.12-1.3.47-3.33-1-4.26l-5.03-1.14.18,2.98c.73,1.52,3.17,1.78,4.03,3.17l2.19,3.55,1.94-3.7,4.05-2.82c-.67-1.38-.19-3.31,1.4-4.09l5.72-2.8c.61-.3,1.08-1.55,1.39-2.25l-1.28-.75,1.78-.09c.28-.25.67-1.17.79-1.64l-1.89.84-3.01,2.77Z"/>
      <path d="M142.19,50.29c1.32-3.42,3.81-3.87,2.69-5.79l-1.32-2.27-4.32-1.46c.9,1.23,1.98,2.07,3.5,2.51l.78,1.79c.45,1.02-1.76,2.62-2.24,5.21h.93Z"/>
    </g>
  </g>
</svg>