<?xml version="1.0" encoding="UTF-8"?>
<svg id="Camada_2" data-name="Camada 2" xmlns="http://www.w3.org/2000/svg" viewBox="0 0 576.92 180.13">
  <defs>
    <style>
      .cls-1 {
        fill: #03ff88;
      }
    </style>
  </defs>
  <g id="Camada_1-2" data-name="Camada 1">
    <g>
      <g>
        <path d="M175.7,91.11l-1.19-24.32-.61-10.78-29.42,5.23-2.14,25.44c-.64,7.57-1.26,14.84-1.18,22.41l-.47,15.52,11.86.78,1.27-21.88,10.58.04.52,11.22,1.15,19.88,12.12-.46-.47-7.11-2-35.96ZM154.39,93.95l2.3-23.66,5.93-.51,1.25,23.79-9.47.38Z"/>
        <polygon points="278.91 65.47 277.13 84 275.3 102.21 274.62 108.42 273.06 108.48 267.45 69.12 255.26 70.65 263.99 117.14 264.54 120.78 283.89 118.96 285.58 105.77 291.95 62.64 278.91 65.47"/>
        <path d="M316.04,77.24l-23.68,3.55-1.76,16.04-2.64,21.99,29.57-2.27-.15-3.5-1.34-35.81ZM298.85,108.52l1.09-20.22,7.14-.54.08,7.54.45,12.76-8.76.46Z"/>
        <polygon points="206.12 81.71 206.48 103.92 206.74 122.48 226.21 123.53 225.9 113.59 215.58 113.81 215.6 98.69 224.71 97.97 224.74 88.25 215.76 88.96 215.77 76.97 226.69 75.82 227.2 65.45 205.92 68.95 206.12 81.71"/>
        <polygon points="190.94 111.14 190.26 83.45 202.01 82.74 202.22 69.56 178.91 72.91 179.86 91.87 181.41 121.34 202.89 122.32 202.7 110.8 190.94 111.14"/>
        <path d="M251.57,102.09l5.53-.65-3.99-22.96-25.08-.47.98,22.39,1.11,23.44,10.39,1.66-.56-21.35c1.62,2.11,2.47,4.26,3.39,6.55l5.46,17.47,13.49,1.75-5.07-13.42-5.65-14.42ZM238.54,95.07l-.6-9,7.1-.18.43,8.43-6.93.76Z"/>
        <g>
          <path d="M359.57,76.85l-1.51-26.33-30.3,5.48-5.1,46.52-3.37,30.39,15.13-2.16,1.99-21.2,12.36.12,2.11,32.8,12.73.67-2.5-42.14-1.52-24.17ZM337.12,98.74l3.08-32.35,6.22-.73.28,5.67,1.31,26.92-10.89.48Z"/>
          <polygon points="387.57 88.94 387.62 104.74 385.14 97.54 379.53 81.01 376.17 70.95 363.82 70.09 366.51 123.27 377.31 125.95 377.11 116.13 377.14 105.48 386.77 130.99 399.71 133.94 399.72 91.26 399.89 78.99 387.48 79.61 387.57 88.94"/>
          <polygon points="536.24 79.53 536.33 88.79 531.01 88.95 530.92 63.5 520.23 64.21 521.04 97.53 521.5 114.31 531.32 113.41 531.18 97.77 536.32 97.68 536.22 102.69 536.05 116.89 535.87 125.53 547.36 124.13 547.43 107.1 547.48 60.12 536.11 61.21 536.24 79.53"/>
          <path d="M403.74,79.96l.98,45.59,24.69-4.15,2.41-49.02.31-4.53-28.6-1.2.21,13.31ZM413.69,79.72l7.35.27-.31,16.99-.35,14.98-6.72.86.03-33.09Z"/>
          <path d="M574.91,69.88l-23.54,3.81-.15,27.29-.09,15.36,25.79,1.58-2.01-48.05ZM559.59,107.44l.06-19.06.1-6.7,6.62-.45.88,26.09-7.66.12Z"/>
          <polygon points="516.55 76.89 516.34 64.19 505.38 64.96 506.02 81.46 507.92 129.91 532.28 126.31 532.28 116.56 517.53 118.02 516.55 76.89"/>
          <polygon points="501.85 76.83 491.15 77.65 493.09 122.92 503.68 122.05 503.16 109.88 501.85 76.83"/>
          <polygon points="501.72 73.67 501.39 65.43 490.55 66.24 490.97 74.42 501.72 73.67"/>
          <path d="M457.91,70.01l-21.79-1.95-2.57,50.48-1.16,20.51,11.22-1.35.04-30.17,7.08-.09.27,8.24.94,21.89.24,6.6,11.17,2.54-3.36-45.51-2.08-31.19ZM443.58,98.72l1.39-18.32,4.47-.2.93,18.09-6.79.44Z"/>
          <path d="M483.77,97.3l4.49-.63-.4-5.07-1.42-16.41-24.15-3.06,1.23,21.97,1.75,28.36,9.26,1.21-.94-24.35c1.49,2.13,2.07,4.1,2.89,6.27l4.51,24.92,11.14,3.31-4.43-19.55-3.94-17ZM472.29,90.48l-.49-9.01,6.18-.03.38,8.29-6.07.75Z"/>
        </g>
      </g>
      <g>
        <polygon class="cls-1" points="87.43 43.32 100.71 52.31 99.17 49.86 95.12 11.2 93.57 10.47 93.75 10.63 85.23 33.16 87.43 43.32"/>
        <polygon class="cls-1" points="120.85 134.65 124.58 117.38 122.85 116.17 125.19 114.57 132.06 82.79 122.82 59.8 120.17 64.46 120.97 55.19 114.86 39.99 108.58 64.87 103.96 57.5 98.14 66.67 110.04 79.54 119.64 73.23 123.69 92.77 113.8 101.57 102.54 146.35 107.21 154.59 103.98 164.98 104.73 164.71 136.42 132.24 120.85 134.65"/>
        <polygon class="cls-1" points="20.11 89.75 24.24 79.04 34.68 76.84 47.59 64.75 44.57 56.51 58.03 43.87 60.78 32.61 53.17 25 45.56 30.34 41.85 23.76 38.58 0 33.4 9.72 33.52 9.77 32.22 20.14 30.56 15.05 27.06 21.62 28.86 42.08 26.93 43.43 26.5 50.91 29.97 58.44 26.23 55.68 25.27 72.4 16.81 66.48 5.83 44.07 0 95.19 3.46 99.27 5.54 99.27 5.64 101.84 32.33 133.36 21.99 134.22 42.74 146.42 31.93 102.12 20.11 89.75"/>
        <path d="M102.96,115.71l3.46-14.6,4.61-3.48,5.43-14.58-3.08,1.59c-.61.32-1.2,1.14-1.54,1.81l-.51-.39c-.11-.08-.48.13-.61.21l-1.32.78-3.38-4.2-3.22-3.8-9.63-7.03-.33-5.94c.98-.69,1.96-1.75,2.37-2.73-1.67-1.53,1.65-.53,1.51-2.31-1.5-.37-2.22-1.23-2.92-2.37l-1.67-2.72-5.22-2.78c-1.57-.84-2.9-1.85-4.71-2.23l6.86,6.06,2.94,2.24c.1.08.44.19.44.3v.56s2.32,1.11,2.32,1.11l-1.69,2.63-4.67-.54,3.95,1.69-1.9,6.84,5.07,4.99,4.52,4.25,2.71,2.49c.89.82,1.57,1.59,2.24,2.68l.32.52c.05.09-.13.21-.33.37,1.16.25,2.29.68,3.45,1.26l2,1-1.71,7.27-3.43,1.56-.45,1.89-2.27,7.77-1.37,5.02c-.11-.62-.01-1.24.09-1.95l1.95-12.49c-2.28-.54-4.26-.95-6.63-1.08l4.09,3.31-7.61,42.85-.94,5.25-.6,3.9,2.98,2.14-2.32,4.98-5.47.16c-2.49.07-4.85-.18-7.36-.32l-4.48-.25-8.72-.16,5.77-1.76,1.95-.54,3.82-.79-.96-.99,2.58.52,5.49-.91-2.71-.27c-4.11-.41-8.09-.43-12.29-.41-.75,0-1.26.35-1.6.99l-.5-.85c-.12-.2-.84.11-1.11.11l-5.28.11-6.71.24c-.16,0-.73.08-.77.24l-.15.57-1.2-.79,2.47-2.42-9.15-46.1-.62-3.63-.74-3.85-4.21-1.38c5.9-1.72,11.35-3.42,17.19-4.31l7.5-1.15c4.86-.75,11.09-1.51,15.6-.83,1.27.19,1.72-.12,2.82-.6l7.82-3.44c-3.38-.6-6.17-.79-9.21-1.03l-2.58-.21-9.03-.11-6.97.12-3.35.17-8.46.83c-4.22.41-8.22,1.24-12.53,2.04.71-.55,1.87-1.59,2.65-1.77l8.56-2.05,4.71-1.1,4.07-.64c.13-.25.38-.75.52-.64.11.08.54.46.68.45l4.11-.36,2.76-.22,6.49-7.97,2.37-2.71-4.57-.08c-.26.29-.4.49-.53.42-.1-.05-.57-.4-.68-.4h-5.2c-.19.1-.96.69-.86.54.07-.11-.47-.56-.6-.54l-2.55.35-3.55-.11-.77-.06c-.16-.01-.01-.68.15-.69l.57-.03c3.74-1.12,7.23-2.17,11.07-2.9,1.51-1.81,1.54-3.73,3.73-5.54l-1.71.19c-.92-.28-2.19-.21-3.3-.11-3.53.31-6.84.98-10.23,2.29l.07,1.96-.1,2.86c0,.14-.1.54-.14.68-.03.09-.32.07-.35-.02l-.14-.51c-.43-1.62-.79-3.11-1.84-4.38l-.32,5.3c-.04.62-.23,1.23-.71,1.56l-3.48,2.44-6.22,4.39.03,1.86c-.5,1.06-.89,2.32-1.47,3.17l-1.43,2.07-.48-2.15-2.25,2.81-2.46-1.42-.59.89.06-1.14-4.55-2.7,2.98,7.97,2.61,7.18,1.46,1.16,1.81,1.52,4.17,17.5,2.73,10.95,2.31,9.88,2.83,11.8-1.02,1.42-4.03.44,5.02,8.4c1.89.36,3.75.45,5.75.38l3.87-.15,4.6-.15,2.71-.13,1.77.14,16.72.09c2.44.01,4.69.58,7.1-.19l1.63-2.62-.98-.21c-.16-.03-.04-.64.12-.66l.56-.06c.38-.04,1.09-.16,1.29-.47l2.78-4.33-4.06-.69-.88-1.69,1.76-6.91-.52-.46s.52-.17.73-.23l2.82-11.82c-.15-.6.16-1,.28-1.51l3.42-13.65ZM39.79,94.41l-.53-1.58c-.08-.23.08-.8.24-.99.19-.22.91-.1,1.11.12.71.8,1.67.11,2.3.14l4.67.17-6.44,1.76-.55.77c-.12.17-.74-.21-.81-.4Z"/>
        <path d="M92.8,96.93c-8.63-1.97-18.89-2.88-27.57-1.71l-12.06,1.63c-1.73.23-3.26.71-4.75,1.38l3.63,1.21,1.21,7.32.67,5.53,5.5,38.83,2.77-.39,2.76-.12,4.21-.24h7.14s5.17.22,5.17.22l-.15-1.35-5.87.71h-3.75s-2.87-.26-2.87-.26l-5.7-.49-2.09-2.24-1.25-10.65-2.8-22.17-1.39-13.07,2.02-2.11c9.75-1.85,19.09-1.74,28.87-.24l2.4,2.57-2.42,20.41-1.54,13.7-1.4,13.07c-.07.61-.68,1.53-1.16,2.25l2.91.37,3.44-24.82,1.37-9.94.79-5.76c-.15-.26-.42-.72-.38-.96s.37-.58.66-.87l1.62-11.83Z"/>
        <path class="cls-1" d="M79.9,143.07c1.81-1.86,2.01-3.75,2.23-6.22l.47-5.4.33-3.32c.1-.96.02-1.5-.4-2.39-2.41-5.17-4.75-10.22-7.46-15.27l-.09-7.31-1.68,3.11.12.88c.03.19-.77.32-.87.51l-1.61,2.92c-1.05,1.91-2.25,3.87-3.07,5.83l1.77,6.19.42,1.27-2.88,5.29c-.36-.56-.6-1.1-.78-1.72l-1.09-3.91-3.18,11.67c.36,1.76.44,4.16,1.19,5.93.81,1.9,2.56,3.31,3.61,5.16-.13-1.71-.1-2.87.34-4.27.55-1.76.93-3.37,1.65-4.87l.82,2.09,5.25-7.04.22-5.44,2.05,5.78.84,3.8c.89,2.85.55,5.53-.03,8.73.82-.33,1.25-1.45,1.8-2Z"/>
        <path d="M52,60.49l-1.71.71,3.12,4.18,2.91-1.22c7.33-3.08,17.11-3.7,25.07-3.09l2.41.19,2.05.08-6.66-1.75c-2.17-.57-5.78-.69-8.49-.79-.49.58-.9,1-1.65,1.09l1.19-1.02-2.64.03-2.64.23-9.88,1.15c5.15-1.85,10.15-2.95,15.19-3.96,1.03-1.09,1.97-2.55,3.21-3.12l6.05-2.76-2.99-.26-4.67-.33c-.83-.06-2.13.21-3.01.26l-3.39.22c-.7.04-.89,1.05-1.09,1.45-.42.88-1.92.73-2.72.64l-6.62,3.47-3.05,4.6Z"/>
        <path d="M65.63,34.25l1.56.86c.18-.36.5-.88.67-.74l.96.77c.23-.94.44-2.16.49-3.19-3.79-3.1-3.97-5.17-2.86-9.57.91-1.67,2.62-2.58,3.98-3.79.54-.48.8-.43,1.54-.39,2.2.14,4.37.34,6.32,1.61l.74,1.22c1.66,2,2.55,4.73,1.57,7.23-.38.99-.54,1.79-.7,2.9-.74-.2-2.51.72-2.48,1.56.05,1.2.27,2.19.51,3.5l4.74-3.47,1.51-4.59c.38-1.16.42-2.44.51-3.66.12-1.55-.41-2.64-1.55-3.83-1.34,2.54-1.41-1.59-3.32-4.91-3.23-.83-6.33-1.35-9.66-1.53l-4.04,3.43-2.93,2.53-1.09,8.03,1.79,3.04,1.74,2.98Z"/>
        <path d="M74.39,29.54l-.46-.52c-.15-.16-.74-.02-.96.06-1.68.59-2.52,1.91-2.36,3.75.12,1.27-.59,3.05-.4,4.29.3,1.92-.32,3.01-2.11,3.75-1.25.52-2.54,1.03-3.95,1.42l-1.75,3.28,1.31,1.66,1.19,1.68,1.99.34c1.66-1.02,3.19-.87,4.69-2.08.57-.08,1.38-.23,1.49-.84l.45-2.61-1.81-1.17,2.17-2.42c.34-.38-.06-1.67-.07-2.22l-.11-4.86c-.01-.58-.61-1.33-1.03-1.93.14-.56.89-1.22,1.7-1.59Z"/>
        <polygon points="73.51 164.9 67.79 164.04 56.83 162.09 59.14 166.51 66.56 170.13 72.21 168.98 73.51 164.9"/>
        <path d="M84.07,165.58l-5.85,4.66c-.22,1.65-.7,3.17-2.06,4.16-1.64,1.2-2.45,2.79-3.05,4.91l-.31-3.49c-.12-1.3.47-3.33-1-4.26l-5.03-1.14.18,2.98c.73,1.52,3.17,1.78,4.03,3.17l2.19,3.55,1.94-3.7,4.05-2.82c-.67-1.38-.19-3.31,1.4-4.09l5.72-2.8c.61-.3,1.08-1.55,1.39-2.25l-1.28-.75,1.78-.09c.28-.25.67-1.17.79-1.64l-1.89.84-3.01,2.77Z"/>
        <path d="M81.58,50.29c1.32-3.42,3.81-3.87,2.69-5.79l-1.32-2.27-4.32-1.45c.9,1.23,1.98,2.07,3.5,2.51l.78,1.79c.45,1.02-1.76,2.62-2.24,5.21h.93Z"/>
      </g>
    </g>
  </g>
</svg>